<svg
  width="100%"
  preserveAspectRatio="xMidYMid meet"
  shape-rendering="geometricPrecision"
  viewBox="0 0 115 115"
  version="1.1"
  xmlns="http://www.w3.org/2000/svg"
>
  <path
    id="icon"
    d="M107,0 C111.418278,0 115,3.581722 115,8 L115,107 C115,111.418278 111.418278,115 107,115 L8,115 C3.581722,115 0,111.418278 0,107 L0,8 C0,3.581722 3.581722,0 8,0 L107,0 Z M51.695,24.74 C46.295,24.74 41.465,26.075 37.205,28.745 C32.945,31.415 29.6,35.225 27.17,40.175 C24.74,45.125 23.525,50.9 23.525,57.5 C23.525,64.1 24.725,69.875 27.125,74.825 C29.525,79.775 32.855,83.585 37.115,86.255 C41.375,88.925 46.235,90.26 51.695,90.26 C57.095,90.26 61.745,89.33 65.645,87.47 L65.645,76.9988765 C63.665,77.8988765 60.62,79.25 58.85,79.73 C57.08,80.21 55.175,80.45 53.135,80.45 C47.315,80.45 42.755,78.365 39.455,74.195 C36.155,70.025 34.505,64.46 34.505,57.5 C34.505,50.54 36.155,44.975 39.455,40.805 C42.755,36.635 47.345,34.55 53.225,34.55 C55.265,34.55 57.17,34.79 58.94,35.27 C60.71,35.75 63.725,36.8083186 65.645,37.7683186 L65.645,27.62 C61.265,25.7 56.615,24.74 51.695,24.74 Z M92.145,25 L90.645,25 L90.645,90 L92.145,90 L92.145,25 Z M81.645,25 L80.145,25 L80.145,90 L81.645,90 L81.645,25 Z M78.645,25 L78.145,25 L78.145,90 L78.645,90 L78.645,25 Z M85.645,25 L82.145,25 L82.145,90 L85.645,90 L85.645,25 Z M90.145,25 L86.145,25 L86.145,90 L90.145,90 L90.145,25 Z M79.645,25 L79.145,25 L79.145,90 L79.645,90 L79.645,25 Z"
    fill="#FFFFFF"
  />
</svg>
